<?xml version="1.0" encoding="UTF-8" standalone="no"?>
<!DOCTYPE svg PUBLIC "-//W3C//DTD SVG 1.1//EN"
 "http://www.w3.org/Graphics/SVG/1.1/DTD/svg11.dtd">
<!-- Generated by graphviz version 2.26.3 (20100126.1600)
 -->
<!-- Title: G Pages: 1 -->
<svg width="433pt" height="764pt"
 viewBox="0.00 0.00 433.00 764.00" xmlns="http://www.w3.org/2000/svg" xmlns:xlink="http://www.w3.org/1999/xlink">
<g id="graph1" class="graph" transform="scale(1 1) rotate(0) translate(4 760)">
<title>G</title>
<polygon fill="white" stroke="white" points="-4,5 -4,-760 430,-760 430,5 -4,5"/>
<!-- GetForeignRelSize -->
<g id="node2" class="node"><title>GetForeignRelSize</title>
<polygon fill="none" stroke="black" points="184,-756 30,-756 30,-720 184,-720 184,-756"/>
<text text-anchor="middle" x="107" y="-734.9" font-family="Times Roman,serif" font-size="14.00">GetForeignRelSize : void</text>
</g>
<!-- GetForeignPaths -->
<g id="node3" class="node"><title>GetForeignPaths</title>
<polygon fill="none" stroke="black" points="178,-612 36,-612 36,-576 178,-576 178,-612"/>
<text text-anchor="middle" x="107" y="-590.9" font-family="Times Roman,serif" font-size="14.00">GetForeignPaths : void</text>
</g>
<!-- GetForeignRelSize&#45;&gt;GetForeignPaths -->
<g id="edge3" class="edge"><title>GetForeignRelSize&#45;&gt;GetForeignPaths</title>
<path fill="none" stroke="black" d="M107,-719.762C107,-695.201 107,-651.247 107,-622.354"/>
<polygon fill="black" stroke="black" points="110.5,-622.09 107,-612.09 103.5,-622.09 110.5,-622.09"/>
</g>
<!-- BaserelEstimates -->
<g id="node10" class="node"><title>BaserelEstimates</title>
<polyline fill="none" stroke="blue" points="263,-684 147,-684 "/>
<path fill="none" stroke="blue" d="M147,-684C141,-684 135,-678 135,-672"/>
<polyline fill="none" stroke="blue" points="135,-672 135,-660 "/>
<path fill="none" stroke="blue" d="M135,-660C135,-654 141,-648 147,-648"/>
<polyline fill="none" stroke="blue" points="147,-648 263,-648 "/>
<path fill="none" stroke="blue" d="M263,-648C269,-648 275,-654 275,-660"/>
<polyline fill="none" stroke="blue" points="275,-660 275,-672 "/>
<path fill="none" stroke="blue" d="M275,-672C275,-678 269,-684 263,-684"/>
<text text-anchor="middle" x="205" y="-662.9" font-family="Times Roman,serif" font-size="14.00">baserel&#45;&gt;[rows, width]</text>
</g>
<!-- GetForeignRelSize&#45;&gt;BaserelEstimates -->
<g id="edge14" class="edge"><title>GetForeignRelSize&#45;&gt;BaserelEstimates</title>
<path fill="none" stroke="black" stroke-dasharray="1,5" d="M131.73,-719.831C143.916,-710.878 158.782,-699.956 171.931,-690.295"/>
<polygon fill="black" stroke="black" points="174.292,-692.904 180.278,-684.163 170.147,-687.263 174.292,-692.904"/>
</g>
<!-- BaserelFDWPrivate -->
<g id="node11" class="node"><title>BaserelFDWPrivate</title>
<polyline fill="none" stroke="blue" points="413,-684 305,-684 "/>
<path fill="none" stroke="blue" d="M305,-684C299,-684 293,-678 293,-672"/>
<polyline fill="none" stroke="blue" points="293,-672 293,-660 "/>
<path fill="none" stroke="blue" d="M293,-660C293,-654 299,-648 305,-648"/>
<polyline fill="none" stroke="blue" points="305,-648 413,-648 "/>
<path fill="none" stroke="blue" d="M413,-648C419,-648 425,-654 425,-660"/>
<polyline fill="none" stroke="blue" points="425,-660 425,-672 "/>
<path fill="none" stroke="blue" d="M425,-672C425,-678 419,-684 413,-684"/>
<text text-anchor="middle" x="359" y="-662.9" font-family="Times Roman,serif" font-size="14.00">baserel&#45;&gt;fdw_private</text>
</g>
<!-- GetForeignRelSize&#45;&gt;BaserelFDWPrivate -->
<g id="edge12" class="edge"><title>GetForeignRelSize&#45;&gt;BaserelFDWPrivate</title>
<path fill="none" stroke="black" stroke-dasharray="1,5" d="M170.265,-719.924C205.464,-709.868 249.432,-697.305 286.073,-686.836"/>
<polygon fill="black" stroke="black" points="287.055,-690.196 295.709,-684.083 285.132,-683.465 287.055,-690.196"/>
</g>
<!-- GetForeignPlan -->
<g id="node4" class="node"><title>GetForeignPlan</title>
<polygon fill="none" stroke="black" points="196,-468 18,-468 18,-432 196,-432 196,-468"/>
<text text-anchor="middle" x="107" y="-446.9" font-family="Times Roman,serif" font-size="14.00">GetForeignPlan : ForeignPlan</text>
</g>
<!-- GetForeignPaths&#45;&gt;GetForeignPlan -->
<g id="edge4" class="edge"><title>GetForeignPaths&#45;&gt;GetForeignPlan</title>
<path fill="none" stroke="black" d="M107,-575.762C107,-551.201 107,-507.247 107,-478.354"/>
<polygon fill="black" stroke="black" points="110.5,-478.09 107,-468.09 103.5,-478.09 110.5,-478.09"/>
</g>
<!-- BaserelPaths -->
<g id="node12" class="node"><title>BaserelPaths</title>
<polyline fill="none" stroke="blue" points="223,-540 147,-540 "/>
<path fill="none" stroke="blue" d="M147,-540C141,-540 135,-534 135,-528"/>
<polyline fill="none" stroke="blue" points="135,-528 135,-516 "/>
<path fill="none" stroke="blue" d="M135,-516C135,-510 141,-504 147,-504"/>
<polyline fill="none" stroke="blue" points="147,-504 223,-504 "/>
<path fill="none" stroke="blue" d="M223,-504C229,-504 235,-510 235,-516"/>
<polyline fill="none" stroke="blue" points="235,-516 235,-528 "/>
<path fill="none" stroke="blue" d="M235,-528C235,-534 229,-540 223,-540"/>
<text text-anchor="middle" x="185" y="-518.9" font-family="Times Roman,serif" font-size="14.00">paths in baserel</text>
</g>
<!-- GetForeignPaths&#45;&gt;BaserelPaths -->
<g id="edge20" class="edge"><title>GetForeignPaths&#45;&gt;BaserelPaths</title>
<path fill="none" stroke="black" stroke-dasharray="1,5" d="M126.683,-575.831C136.105,-567.134 147.54,-556.578 157.78,-547.127"/>
<polygon fill="black" stroke="black" points="160.35,-549.517 165.324,-540.163 155.602,-544.374 160.35,-549.517"/>
</g>
<!-- BeginForeignScan -->
<g id="node5" class="node"><title>BeginForeignScan</title>
<polygon fill="none" stroke="black" points="183,-252 31,-252 31,-216 183,-216 183,-252"/>
<text text-anchor="middle" x="107" y="-230.9" font-family="Times Roman,serif" font-size="14.00">BeginForeignScan : void</text>
</g>
<!-- GetForeignPlan&#45;&gt;BeginForeignScan -->
<g id="edge5" class="edge"><title>GetForeignPlan&#45;&gt;BeginForeignScan</title>
<path fill="none" stroke="black" d="M107,-431.955C107,-394.394 107,-307.554 107,-262.41"/>
<polygon fill="black" stroke="black" points="110.5,-262.145 107,-252.145 103.5,-262.145 110.5,-262.145"/>
</g>
<!-- BaserelFDWPrivate2 -->
<g id="node14" class="node"><title>BaserelFDWPrivate2</title>
<polyline fill="none" stroke="blue" points="255,-396 147,-396 "/>
<path fill="none" stroke="blue" d="M147,-396C141,-396 135,-390 135,-384"/>
<polyline fill="none" stroke="blue" points="135,-384 135,-372 "/>
<path fill="none" stroke="blue" d="M135,-372C135,-366 141,-360 147,-360"/>
<polyline fill="none" stroke="blue" points="147,-360 255,-360 "/>
<path fill="none" stroke="blue" d="M255,-360C261,-360 267,-366 267,-372"/>
<polyline fill="none" stroke="blue" points="267,-372 267,-384 "/>
<path fill="none" stroke="blue" d="M267,-384C267,-390 261,-396 255,-396"/>
<text text-anchor="middle" x="201" y="-374.9" font-family="Times Roman,serif" font-size="14.00">baserel&#45;&gt;fdw_private</text>
</g>
<!-- GetForeignPlan&#45;&gt;BaserelFDWPrivate2 -->
<g id="edge26" class="edge"><title>GetForeignPlan&#45;&gt;BaserelFDWPrivate2</title>
<path fill="none" stroke="black" stroke-dasharray="1,5" d="M130.72,-431.831C142.409,-422.878 156.669,-411.956 169.281,-402.295"/>
<polygon fill="black" stroke="black" points="171.477,-405.022 177.287,-396.163 167.22,-399.465 171.477,-405.022"/>
</g>
<!-- Plan -->
<g id="node16" class="node"><title>Plan</title>
<polyline fill="none" stroke="blue" points="338,-396 308,-396 "/>
<path fill="none" stroke="blue" d="M308,-396C302,-396 296,-390 296,-384"/>
<polyline fill="none" stroke="blue" points="296,-384 296,-372 "/>
<path fill="none" stroke="blue" d="M296,-372C296,-366 302,-360 308,-360"/>
<polyline fill="none" stroke="blue" points="308,-360 338,-360 "/>
<path fill="none" stroke="blue" d="M338,-360C344,-360 350,-366 350,-372"/>
<polyline fill="none" stroke="blue" points="350,-372 350,-384 "/>
<path fill="none" stroke="blue" d="M350,-384C350,-390 344,-396 338,-396"/>
<text text-anchor="middle" x="323" y="-374.9" font-family="Times Roman,serif" font-size="14.00">plan</text>
</g>
<!-- GetForeignPlan&#45;&gt;Plan -->
<g id="edge24" class="edge"><title>GetForeignPlan&#45;&gt;Plan</title>
<path fill="none" stroke="black" stroke-dasharray="1,5" d="M166.322,-431.945C198.855,-421.818 239.815,-408.699 276,-396 279.316,-394.836 282.75,-393.594 286.183,-392.326"/>
<polygon fill="black" stroke="black" points="287.626,-395.523 295.758,-388.732 285.166,-388.97 287.626,-395.523"/>
</g>
<!-- IterateForeignScan -->
<g id="node6" class="node"><title>IterateForeignScan</title>
<polygon fill="none" stroke="black" points="214,-108 8.52651e-14,-108 0,-72 214,-72 214,-108"/>
<text text-anchor="middle" x="107" y="-86.9" font-family="Times Roman,serif" font-size="14.00">IterateForeignScan : TupleTableSlot</text>
</g>
<!-- BeginForeignScan&#45;&gt;IterateForeignScan -->
<g id="edge6" class="edge"><title>BeginForeignScan&#45;&gt;IterateForeignScan</title>
<path fill="none" stroke="black" d="M107,-215.762C107,-191.201 107,-147.247 107,-118.354"/>
<polygon fill="black" stroke="black" points="110.5,-118.09 107,-108.09 103.5,-118.09 110.5,-118.09"/>
</g>
<!-- FDWState -->
<g id="node13" class="node"><title>FDWState</title>
<polyline fill="none" stroke="blue" points="231,-180 147,-180 "/>
<path fill="none" stroke="blue" d="M147,-180C141,-180 135,-174 135,-168"/>
<polyline fill="none" stroke="blue" points="135,-168 135,-156 "/>
<path fill="none" stroke="blue" d="M135,-156C135,-150 141,-144 147,-144"/>
<polyline fill="none" stroke="blue" points="147,-144 231,-144 "/>
<path fill="none" stroke="blue" d="M231,-144C237,-144 243,-150 243,-156"/>
<polyline fill="none" stroke="blue" points="243,-156 243,-168 "/>
<path fill="none" stroke="blue" d="M243,-168C243,-174 237,-180 231,-180"/>
<text text-anchor="middle" x="189" y="-158.9" font-family="Times Roman,serif" font-size="14.00">node&#45;&gt;fdw_state</text>
</g>
<!-- BeginForeignScan&#45;&gt;FDWState -->
<g id="edge36" class="edge"><title>BeginForeignScan&#45;&gt;FDWState</title>
<path fill="none" stroke="black" stroke-dasharray="1,5" d="M127.692,-215.831C137.695,-207.048 149.855,-196.371 160.7,-186.849"/>
<polygon fill="black" stroke="black" points="163.109,-189.391 168.315,-180.163 158.491,-184.131 163.109,-189.391"/>
</g>
<!-- IterateForeignScan&#45;&gt;IterateForeignScan -->
<g id="edge7" class="edge"><title>IterateForeignScan&#45;&gt;IterateForeignScan</title>
<path fill="none" stroke="black" d="M214.13,-101.097C225.037,-98.9022 232,-95.2031 232,-90 232,-86.5854 229.001,-83.8186 223.857,-81.6995"/>
<polygon fill="black" stroke="black" points="224.708,-78.3024 214.13,-78.9027 222.773,-85.0298 224.708,-78.3024"/>
</g>
<!-- EndForeignScan -->
<g id="node7" class="node"><title>EndForeignScan</title>
<polygon fill="none" stroke="black" points="178,-36 36,-36 36,-1.77636e-14 178,-3.55271e-15 178,-36"/>
<text text-anchor="middle" x="107" y="-14.9" font-family="Times Roman,serif" font-size="14.00">EndForeignScan : void</text>
</g>
<!-- IterateForeignScan&#45;&gt;EndForeignScan -->
<g id="edge8" class="edge"><title>IterateForeignScan&#45;&gt;EndForeignScan</title>
<path fill="none" stroke="black" d="M107,-71.8314C107,-64.131 107,-54.9743 107,-46.4166"/>
<polygon fill="black" stroke="black" points="110.5,-46.4132 107,-36.4133 103.5,-46.4133 110.5,-46.4132"/>
</g>
<!-- BaserelFDWPrivate&#45;&gt;GetForeignPaths -->
<g id="edge16" class="edge"><title>BaserelFDWPrivate&#45;&gt;GetForeignPaths</title>
<path fill="none" stroke="black" stroke-dasharray="1,5" d="M295.735,-647.924C260.536,-637.868 216.568,-625.305 179.927,-614.836"/>
<polygon fill="black" stroke="black" points="180.868,-611.465 170.291,-612.083 178.945,-618.196 180.868,-611.465"/>
</g>
<!-- BaserelFDWPrivate&#45;&gt;GetForeignPlan -->
<g id="edge18" class="edge"><title>BaserelFDWPrivate&#45;&gt;GetForeignPlan</title>
<path fill="none" stroke="black" stroke-dasharray="1,5" d="M350.554,-647.829C334.352,-614.807 295.862,-544.623 244,-504 226.459,-490.261 204.984,-479.618 184.285,-471.555"/>
<polygon fill="black" stroke="black" points="185.439,-468.25 174.847,-468.03 182.99,-474.808 185.439,-468.25"/>
</g>
<!-- BaserelPaths&#45;&gt;GetForeignPlan -->
<g id="edge22" class="edge"><title>BaserelPaths&#45;&gt;GetForeignPlan</title>
<path fill="none" stroke="black" stroke-dasharray="1,5" d="M165.317,-503.831C155.895,-495.134 144.46,-484.578 134.22,-475.127"/>
<polygon fill="black" stroke="black" points="136.398,-472.374 126.676,-468.163 131.65,-477.517 136.398,-472.374"/>
</g>
<!-- FDWState&#45;&gt;IterateForeignScan -->
<g id="edge38" class="edge"><title>FDWState&#45;&gt;IterateForeignScan</title>
<path fill="none" stroke="black" stroke-dasharray="1,5" d="M168.308,-143.831C158.305,-135.048 146.145,-124.371 135.3,-114.849"/>
<polygon fill="black" stroke="black" points="137.509,-112.131 127.685,-108.163 132.891,-117.391 137.509,-112.131"/>
</g>
<!-- FDWState&#45;&gt;EndForeignScan -->
<g id="edge40" class="edge"><title>FDWState&#45;&gt;EndForeignScan</title>
<path fill="none" stroke="black" stroke-dasharray="1,5" d="M211.884,-143.965C232.499,-125.468 257.257,-96.079 241,-72 228.525,-53.5227 208.558,-41.3664 187.806,-33.3693"/>
<polygon fill="black" stroke="black" points="188.835,-30.0207 178.24,-29.9798 186.497,-36.6187 188.835,-30.0207"/>
</g>
<!-- PlanFDWPrivate -->
<g id="node15" class="node"><title>PlanFDWPrivate</title>
<polyline fill="none" stroke="blue" points="251,-324 147,-324 "/>
<path fill="none" stroke="blue" d="M147,-324C141,-324 135,-318 135,-312"/>
<polyline fill="none" stroke="blue" points="135,-312 135,-300 "/>
<path fill="none" stroke="blue" d="M135,-300C135,-294 141,-288 147,-288"/>
<polyline fill="none" stroke="blue" points="147,-288 251,-288 "/>
<path fill="none" stroke="blue" d="M251,-288C257,-288 263,-294 263,-300"/>
<polyline fill="none" stroke="blue" points="263,-300 263,-312 "/>
<path fill="none" stroke="blue" d="M263,-312C263,-318 257,-324 251,-324"/>
<text text-anchor="middle" x="199" y="-302.9" font-family="Times Roman,serif" font-size="14.00">fsplan&#45;&gt;fdw_private</text>
</g>
<!-- BaserelFDWPrivate2&#45;&gt;PlanFDWPrivate -->
<g id="edge30" class="edge"><title>BaserelFDWPrivate2&#45;&gt;PlanFDWPrivate</title>
<path fill="none" stroke="black" stroke-dasharray="1,5" d="M200.495,-359.831C200.281,-352.131 200.027,-342.974 199.789,-334.417"/>
<polygon fill="black" stroke="black" points="203.288,-334.312 199.511,-324.413 196.291,-334.507 203.288,-334.312"/>
</g>
<!-- PlanFDWPrivate&#45;&gt;BeginForeignScan -->
<g id="edge34" class="edge"><title>PlanFDWPrivate&#45;&gt;BeginForeignScan</title>
<path fill="none" stroke="black" stroke-dasharray="1,5" d="M175.785,-287.831C164.453,-278.963 150.654,-268.164 138.397,-258.572"/>
<polygon fill="black" stroke="black" points="140.24,-255.57 130.208,-252.163 135.926,-261.082 140.24,-255.57"/>
</g>
<!-- NodePlan -->
<g id="node17" class="node"><title>NodePlan</title>
<polyline fill="none" stroke="blue" points="377,-324 293,-324 "/>
<path fill="none" stroke="blue" d="M293,-324C287,-324 281,-318 281,-312"/>
<polyline fill="none" stroke="blue" points="281,-312 281,-300 "/>
<path fill="none" stroke="blue" d="M281,-300C281,-294 287,-288 293,-288"/>
<polyline fill="none" stroke="blue" points="293,-288 377,-288 "/>
<path fill="none" stroke="blue" d="M377,-288C383,-288 389,-294 389,-300"/>
<polyline fill="none" stroke="blue" points="389,-300 389,-312 "/>
<path fill="none" stroke="blue" d="M389,-312C389,-318 383,-324 377,-324"/>
<text text-anchor="middle" x="335" y="-302.9" font-family="Times Roman,serif" font-size="14.00">node&#45;&gt;ss.ps.plan</text>
</g>
<!-- Plan&#45;&gt;NodePlan -->
<g id="edge28" class="edge"><title>Plan&#45;&gt;NodePlan</title>
<path fill="none" stroke="black" stroke-dasharray="1,5" d="M326.028,-359.831C327.312,-352.131 328.838,-342.974 330.264,-334.417"/>
<polygon fill="black" stroke="black" points="333.739,-334.853 331.931,-324.413 326.835,-333.702 333.739,-334.853"/>
</g>
<!-- NodePlan&#45;&gt;BeginForeignScan -->
<g id="edge32" class="edge"><title>NodePlan&#45;&gt;BeginForeignScan</title>
<path fill="none" stroke="black" stroke-dasharray="1,5" d="M280.967,-288.937C248.966,-278.831 208.152,-265.943 174.1,-255.189"/>
<polygon fill="black" stroke="black" points="174.818,-251.746 164.228,-252.072 172.71,-258.421 174.818,-251.746"/>
</g>
</g>
</svg>
